<svg style="position: absolute; width: 0; height: 0; overflow: hidden;" version="1.1" xmlns="http://www.w3.org/2000/svg" xmlns:xlink="http://www.w3.org/1999/xlink">
<defs>
<symbol id="icon-arrow-down" viewBox="0 0 32 32">
<title>arrow-down</title>
<path d="M16 23.855c-0.582 0-1.164-0.291-1.455-0.582l-12.509-13.382c-0.873-0.873-0.873-2.036 0-2.909s2.036-0.873 2.909 0l11.055 11.927 11.055-11.927c0.873-0.873 2.036-0.873 2.909 0s0.873 2.036 0 2.909l-12.509 13.382c-0.291 0.291-0.873 0.582-1.455 0.582z"></path>
</symbol>
<symbol id="icon-close" viewBox="0 0 32 32">
<title>close</title>
<path d="M31.187 27.272c0.501 0.501 0.812 1.194 0.812 1.958 0 1.529-1.239 2.768-2.768 2.768-0.764 0-1.456-0.31-1.957-0.81l-11.274-11.274-11.274 11.274c-0.5 0.502-1.192 0.813-1.957 0.813s-1.457-0.311-1.957-0.813l-0-0c-0.502-0.501-0.812-1.193-0.812-1.958s0.31-1.457 0.812-1.958l11.27-11.274-11.27-11.274c-0.501-0.501-0.812-1.194-0.812-1.958 0-1.529 1.239-2.768 2.768-2.768 0.764 0 1.456 0.31 1.957 0.81l11.274 11.274 11.274-11.274c0.491-0.45 1.148-0.726 1.87-0.726 1.53 0 2.771 1.241 2.771 2.771 0 0.722-0.276 1.38-0.729 1.873l0.002-0.002-11.27 11.274 11.27 11.274z"></path>
</symbol>
<symbol id="icon-export" viewBox="0 0 32 32">
<title>export</title>
<path d="M10.416 10.74l3.877-3.787v14.112c0 0.899 0.765 1.627 1.707 1.627s1.707-0.728 1.707-1.627v-14.112l3.877 3.787c0.313 0.302 0.739 0.488 1.209 0.488 0.003 0 0.007 0 0.010-0h-0.001c0.004 0 0.009 0 0.014 0 0.458 0 0.874-0.176 1.185-0.465l-0.001 0.001c0.316-0.29 0.513-0.704 0.513-1.165 0-0.448-0.186-0.852-0.486-1.139l-0.001-0.001-6.811-6.64c-0.313-0.302-0.74-0.488-1.21-0.488-0.002 0-0.004 0-0.006 0h0c-0.002 0-0.005-0-0.008-0-0.47 0-0.898 0.186-1.212 0.489l0.001-0.001-6.803 6.64c-0.3 0.288-0.486 0.692-0.486 1.139 0 0.46 0.197 0.875 0.512 1.163l0.001 0.001c0.312 0.288 0.731 0.464 1.191 0.464 0.474 0 0.904-0.187 1.22-0.492l-0.001 0.001zM30.667 20.164v8.875c-0.022 0.905-0.761 1.63-1.669 1.63-0.013 0-0.027-0-0.040-0l0.002 0h-25.92c-0.941 0-1.707-0.731-1.707-1.629v-8.88c0-0.901 0.763-1.629 1.707-1.629 0.941 0 1.707 0.728 1.707 1.627v7.248h22.507v-7.245c0-0.901 0.765-1.629 1.707-1.629 0.944 0 1.707 0.728 1.707 1.627z"></path>
</symbol>
<symbol id="icon-full-screen" viewBox="0 0 32 32">
<title>full-screen</title>
<path d="M11.947 17.995l-9.040 9.040v-4.131c0-0.803-0.651-1.453-1.453-1.453s-1.453 0.651-1.453 1.453v0 7.64c0 0 0 0 0 0 0 0.803 0.65 1.454 1.453 1.456h7.643c0.803 0 1.453-0.651 1.453-1.453s-0.651-1.453-1.453-1.453h-4.128l9.040-9.040c0.263-0.263 0.426-0.627 0.426-1.029 0-0.804-0.652-1.456-1.456-1.456-0.402 0-0.766 0.163-1.029 0.426v0zM32 1.453v7.643c0 0.803-0.651 1.453-1.453 1.453s-1.453-0.651-1.453-1.453v-4.131l-9.2 9.197c-0.263 0.263-0.626 0.426-1.027 0.426s-0.764-0.163-1.027-0.426l-0-0c-0.264-0.263-0.427-0.627-0.427-1.029s0.163-0.766 0.427-1.029l9.195-9.195h-4.133c-0.803 0-1.455-0.651-1.455-1.455s0.651-1.455 1.455-1.455h7.645c0.803 0 1.453 0.651 1.453 1.453v0z"></path>
</symbol>
<symbol id="icon-localisation" viewBox="0 0 32 32">
<title>localisation</title>
<path d="M17.392 29.147v-3.573c0-0.769-0.623-1.392-1.392-1.392s-1.392 0.623-1.392 1.392v0 3.568c-6.206-0.659-11.092-5.543-11.747-11.692l-0.005-0.058h3.573c0.769 0 1.392-0.623 1.392-1.392s-0.623-1.392-1.392-1.392h-3.576c0.651-6.212 5.542-11.104 11.698-11.75l0.057-0.005v3.573c0 0.769 0.623 1.392 1.392 1.392s1.392-0.623 1.392-1.392v0-3.565c6.206 0.659 11.092 5.543 11.747 11.692l0.005 0.058h-3.573c-0.769 0-1.392 0.623-1.392 1.392s0.623 1.392 1.392 1.392v0h3.573c-0.651 6.212-5.541 11.102-11.695 11.75l-0.057 0.005zM16.024 0h-0.024c-8.821 0-16 7.179-16 16 0.011 8.824 7.154 15.976 15.974 16h0.026c8.821 0 16-7.179 16-16-0.011-8.824-7.154-15.976-15.974-16h-0.002z"></path>
</symbol>
<symbol id="icon-move" viewBox="0 0 32 32">
<title>move</title>
<path d="M31.589 17.089l-4.919 4.887c-0.249 0.246-0.591 0.398-0.969 0.398-0.391 0-0.745-0.163-0.996-0.424l-0-0c-0.251-0.256-0.405-0.607-0.405-0.994 0-0.389 0.157-0.742 0.41-0.999l2.526-2.562h-9.84v9.872l2.555-2.533c0.253-0.25 0.6-0.404 0.984-0.404 0.387 0 0.737 0.157 0.991 0.41v0c0.249 0.251 0.403 0.597 0.403 0.979 0 0.385-0.157 0.734-0.41 0.986l-0 0-4.919 4.891c-0.251 0.251-0.598 0.406-0.981 0.406s-0.73-0.155-0.981-0.406v0l-4.921-4.891c-0.218-0.245-0.351-0.569-0.351-0.924 0-0.769 0.623-1.392 1.392-1.392 0.351 0 0.672 0.13 0.917 0.345l-0.002-0.001 2.537 2.533v-9.874h-9.845l2.526 2.565c0.546 0.542 0.549 1.474 0.007 2.021-0.251 0.255-0.6 0.413-0.986 0.413-0.384 0-0.731-0.156-0.982-0.408l-0-0-4.919-4.891c-0.254-0.253-0.411-0.602-0.411-0.989s0.157-0.736 0.411-0.989l4.919-4.894c0.252-0.253 0.601-0.41 0.986-0.41 0.382 0 0.728 0.154 0.98 0.403l-0-0c0.251 0.247 0.406 0.59 0.406 0.969 0 0.382-0.157 0.726-0.41 0.973l-0 0-2.526 2.453h9.84v-9.87l-2.535 2.533c-0.25 0.25-0.595 0.404-0.976 0.404-0.385 0-0.732-0.157-0.983-0.411l-0-0c-0.25-0.252-0.404-0.598-0.404-0.981 0-0.385 0.156-0.733 0.409-0.985l0-0 4.919-4.894c0.252-0.25 0.599-0.405 0.982-0.405s0.73 0.155 0.982 0.405l4.916 4.891c0.253 0.252 0.409 0.601 0.409 0.986 0 0.769-0.624 1.393-1.393 1.393-0.384 0-0.732-0.155-0.984-0.407l0 0-2.555-2.53v9.874h9.842l-2.526-2.462c-0.254-0.242-0.411-0.583-0.411-0.961 0-0.374 0.155-0.713 0.404-0.954l0-0c0.252-0.254 0.601-0.411 0.987-0.411 0.383 0 0.729 0.154 0.981 0.404l-0-0 4.919 4.891c0.253 0.251 0.409 0.599 0.409 0.984s-0.156 0.733-0.409 0.984l-0 0z"></path>
</symbol>
<symbol id="icon-search-lg" viewBox="0 0 31 32">
<title>search-lg</title>
<path d="M18.714 21.596c-4.889 0-8.866-4.088-8.866-9.113 0-5.024 3.977-9.111 8.866-9.111s8.866 4.087 8.866 9.111c0 5.025-3.977 9.113-8.866 9.113zM6.782 12.483c0 2.83 0.947 5.435 2.531 7.509l-8.446 8.766c-0.67 0.686-0.663 1.791 0.016 2.466 0.309 0.311 0.738 0.504 1.211 0.504 0.482 0 0.917-0.2 1.227-0.52l8.466-8.789c1.912 1.422 4.319 2.277 6.925 2.278h0c6.579 0 11.931-5.479 11.931-12.213 0-6.733-5.352-12.21-11.931-12.21s-11.931 5.478-11.931 12.21z"></path>
</symbol>
<symbol id="icon-search" viewBox="0 0 32 32">
<title>search</title>
<path d="M23.53 14.3c0.265 0.26 0.43 0.621 0.432 1.020v0c-0.001 0.401-0.166 0.763-0.432 1.024l-0 0c-0.27 0.265-0.64 0.428-1.048 0.428s-0.778-0.163-1.048-0.428l0 0c-0.266-0.261-0.431-0.623-0.432-1.024v-0c0.002-0.4 0.167-0.761 0.432-1.021l0-0c0.271-0.262 0.641-0.423 1.048-0.423s0.777 0.161 1.048 0.423l-0-0zM26.257 11.526c-0.094 0.626-0.628 1.101-1.273 1.101-0.065 0-0.128-0.005-0.19-0.014l0.007 0.001c-0.636-0.076-1.124-0.612-1.124-1.262 0-0.057 0.004-0.113 0.011-0.169l-0.001 0.006c0.259-1.894-1.901-2.88-1.994-2.925-0.448-0.199-0.755-0.64-0.755-1.153 0-0.188 0.041-0.366 0.115-0.526l-0.003 0.008c0.214-0.446 0.662-0.749 1.181-0.749 0.189 0 0.368 0.040 0.53 0.112l-0.008-0.003c0.16 0.070 4.019 1.789 3.504 5.568zM20.481 19.9c-0.005 0-0.010 0-0.016 0-4.705 0-8.522-3.803-8.544-8.504v-0.002c0.022-4.702 3.839-8.506 8.544-8.506 0.006 0 0.011 0 0.017 0h-0.001c0.005 0 0.010 0 0.016 0 4.703 0 8.518 3.8 8.544 8.497v0.002c-0.018 4.705-3.836 8.512-8.544 8.512-0.006 0-0.011 0-0.017-0h0.001zM20.481-0.004c-6.352 0-11.52 5.114-11.52 11.395 0 2.643 0.915 5.075 2.445 7.008l-10.925 10.826c-0.297 0.291-0.482 0.696-0.482 1.144 0 0.456 0.191 0.868 0.497 1.159l0.001 0.001c0.302 0.294 0.714 0.475 1.169 0.475 0.463 0 0.882-0.188 1.186-0.491v0l10.944-10.848c1.888 1.334 4.192 2.125 6.685 2.125 6.352 0 11.52-5.114 11.52-11.398 0-6.282-5.168-11.395-11.52-11.395z"></path>
</symbol>
<symbol id="icon-stop" viewBox="0 0 19 32">
<title>stop</title>
<path d="M17.594 0c-0.883 0-1.6 0.944-1.6 2.106v27.789c0 1.162 0.717 2.106 1.6 2.106s1.6-0.944 1.6-2.106v-27.789c0-1.162-0.717-2.106-1.6-2.106zM3.194 2.106v27.789c0 1.162-0.717 2.106-1.6 2.106s-1.6-0.944-1.6-2.106v-27.789c0-1.162 0.717-2.106 1.6-2.106s1.6 0.944 1.6 2.106z"></path>
</symbol>
<symbol id="icon-zoom-in" viewBox="0 0 32 32">
<title>zoom-in</title>
<path d="M28.074 18.742h-9.873v9.332c-0.066 1.313-1.146 2.353-2.47 2.353s-2.404-1.040-2.47-2.347l-0-0.006v-9.332h-9.335c-1.313-0.066-2.353-1.146-2.353-2.47s1.040-2.404 2.347-2.47l0.006-0h9.332v-9.876c0.066-1.313 1.146-2.353 2.47-2.353s2.404 1.040 2.47 2.347l0 0.006v9.879h9.876c1.313 0.066 2.353 1.146 2.353 2.47s-1.040 2.404-2.347 2.47l-0.006 0z"></path>
</symbol>
<symbol id="icon-zoom-out" viewBox="0 0 32 32">
<title>zoom-out</title>
<path d="M13.236 18.473h-9.309c-1.455 0-2.327-1.164-2.327-2.618 0-1.164 1.164-2.327 2.327-2.327h24.145c1.455 0 2.327 1.164 2.327 2.618 0 1.164-1.164 2.327-2.327 2.327v0h-14.836z"></path>
</symbol>
</defs>
</svg>
