<!-- Generated by IcoMoon.io -->
<svg version="1.1" xmlns="http://www.w3.org/2000/svg" width="32" height="32" viewBox="0 0 32 32">
<title>close</title>
<path d="M31.187 27.272c0.501 0.501 0.812 1.194 0.812 1.958 0 1.529-1.239 2.768-2.768 2.768-0.764 0-1.456-0.31-1.957-0.81l-11.274-11.274-11.274 11.274c-0.5 0.502-1.192 0.813-1.957 0.813s-1.457-0.311-1.957-0.813l-0-0c-0.502-0.501-0.812-1.193-0.812-1.958s0.31-1.457 0.812-1.958l11.27-11.274-11.27-11.274c-0.501-0.501-0.812-1.194-0.812-1.958 0-1.529 1.239-2.768 2.768-2.768 0.764 0 1.456 0.31 1.957 0.81l11.274 11.274 11.274-11.274c0.491-0.45 1.148-0.726 1.87-0.726 1.53 0 2.771 1.241 2.771 2.771 0 0.722-0.276 1.38-0.729 1.873l0.002-0.002-11.27 11.274 11.27 11.274z"></path>
</svg>
