<!-- Generated by IcoMoon.io -->
<svg version="1.1" xmlns="http://www.w3.org/2000/svg" width="32" height="32" viewBox="0 0 32 32">
<title>export</title>
<path d="M10.416 10.74l3.877-3.787v14.112c0 0.899 0.765 1.627 1.707 1.627s1.707-0.728 1.707-1.627v-14.112l3.877 3.787c0.313 0.302 0.739 0.488 1.209 0.488 0.003 0 0.007 0 0.010-0h-0.001c0.004 0 0.009 0 0.014 0 0.458 0 0.874-0.176 1.185-0.465l-0.001 0.001c0.316-0.29 0.513-0.704 0.513-1.165 0-0.448-0.186-0.852-0.486-1.139l-0.001-0.001-6.811-6.64c-0.313-0.302-0.74-0.488-1.21-0.488-0.002 0-0.004 0-0.006 0h0c-0.002 0-0.005-0-0.008-0-0.47 0-0.898 0.186-1.212 0.489l0.001-0.001-6.803 6.64c-0.3 0.288-0.486 0.692-0.486 1.139 0 0.46 0.197 0.875 0.512 1.163l0.001 0.001c0.312 0.288 0.731 0.464 1.191 0.464 0.474 0 0.904-0.187 1.22-0.492l-0.001 0.001zM30.667 20.164v8.875c-0.022 0.905-0.761 1.63-1.669 1.63-0.013 0-0.027-0-0.040-0l0.002 0h-25.92c-0.941 0-1.707-0.731-1.707-1.629v-8.88c0-0.901 0.763-1.629 1.707-1.629 0.941 0 1.707 0.728 1.707 1.627v7.248h22.507v-7.245c0-0.901 0.765-1.629 1.707-1.629 0.944 0 1.707 0.728 1.707 1.627z"></path>
</svg>
