<!-- Generated by IcoMoon.io -->
<svg version="1.1" xmlns="http://www.w3.org/2000/svg" width="32" height="32" viewBox="0 0 32 32">
<title>full-screen</title>
<path d="M11.947 17.995l-9.040 9.040v-4.131c0-0.803-0.651-1.453-1.453-1.453s-1.453 0.651-1.453 1.453v0 7.64c0 0 0 0 0 0 0 0.803 0.65 1.454 1.453 1.456h7.643c0.803 0 1.453-0.651 1.453-1.453s-0.651-1.453-1.453-1.453h-4.128l9.040-9.040c0.263-0.263 0.426-0.627 0.426-1.029 0-0.804-0.652-1.456-1.456-1.456-0.402 0-0.766 0.163-1.029 0.426v0zM32 1.453v7.643c0 0.803-0.651 1.453-1.453 1.453s-1.453-0.651-1.453-1.453v-4.131l-9.2 9.197c-0.263 0.263-0.626 0.426-1.027 0.426s-0.764-0.163-1.027-0.426l-0-0c-0.264-0.263-0.427-0.627-0.427-1.029s0.163-0.766 0.427-1.029l9.195-9.195h-4.133c-0.803 0-1.455-0.651-1.455-1.455s0.651-1.455 1.455-1.455h7.645c0.803 0 1.453 0.651 1.453 1.453v0z"></path>
</svg>
