<!-- Generated by IcoMoon.io -->
<svg version="1.1" xmlns="http://www.w3.org/2000/svg" width="32" height="32" viewBox="0 0 32 32">
<title>localisation</title>
<path d="M17.392 29.147v-3.573c0-0.769-0.623-1.392-1.392-1.392s-1.392 0.623-1.392 1.392v0 3.568c-6.206-0.659-11.092-5.543-11.747-11.692l-0.005-0.058h3.573c0.769 0 1.392-0.623 1.392-1.392s-0.623-1.392-1.392-1.392h-3.576c0.651-6.212 5.542-11.104 11.698-11.75l0.057-0.005v3.573c0 0.769 0.623 1.392 1.392 1.392s1.392-0.623 1.392-1.392v0-3.565c6.206 0.659 11.092 5.543 11.747 11.692l0.005 0.058h-3.573c-0.769 0-1.392 0.623-1.392 1.392s0.623 1.392 1.392 1.392v0h3.573c-0.651 6.212-5.541 11.102-11.695 11.75l-0.057 0.005zM16.024 0h-0.024c-8.821 0-16 7.179-16 16 0.011 8.824 7.154 15.976 15.974 16h0.026c8.821 0 16-7.179 16-16-0.011-8.824-7.154-15.976-15.974-16h-0.002z"></path>
</svg>
