<!-- Generated by IcoMoon.io -->
<svg version="1.1" xmlns="http://www.w3.org/2000/svg" width="32" height="32" viewBox="0 0 32 32">
<title>move</title>
<path d="M31.589 17.089l-4.919 4.887c-0.249 0.246-0.591 0.398-0.969 0.398-0.391 0-0.745-0.163-0.996-0.424l-0-0c-0.251-0.256-0.405-0.607-0.405-0.994 0-0.389 0.157-0.742 0.41-0.999l2.526-2.562h-9.84v9.872l2.555-2.533c0.253-0.25 0.6-0.404 0.984-0.404 0.387 0 0.737 0.157 0.991 0.41v0c0.249 0.251 0.403 0.597 0.403 0.979 0 0.385-0.157 0.734-0.41 0.986l-0 0-4.919 4.891c-0.251 0.251-0.598 0.406-0.981 0.406s-0.73-0.155-0.981-0.406v0l-4.921-4.891c-0.218-0.245-0.351-0.569-0.351-0.924 0-0.769 0.623-1.392 1.392-1.392 0.351 0 0.672 0.13 0.917 0.345l-0.002-0.001 2.537 2.533v-9.874h-9.845l2.526 2.565c0.546 0.542 0.549 1.474 0.007 2.021-0.251 0.255-0.6 0.413-0.986 0.413-0.384 0-0.731-0.156-0.982-0.408l-0-0-4.919-4.891c-0.254-0.253-0.411-0.602-0.411-0.989s0.157-0.736 0.411-0.989l4.919-4.894c0.252-0.253 0.601-0.41 0.986-0.41 0.382 0 0.728 0.154 0.98 0.403l-0-0c0.251 0.247 0.406 0.59 0.406 0.969 0 0.382-0.157 0.726-0.41 0.973l-0 0-2.526 2.453h9.84v-9.87l-2.535 2.533c-0.25 0.25-0.595 0.404-0.976 0.404-0.385 0-0.732-0.157-0.983-0.411l-0-0c-0.25-0.252-0.404-0.598-0.404-0.981 0-0.385 0.156-0.733 0.409-0.985l0-0 4.919-4.894c0.252-0.25 0.599-0.405 0.982-0.405s0.73 0.155 0.982 0.405l4.916 4.891c0.253 0.252 0.409 0.601 0.409 0.986 0 0.769-0.624 1.393-1.393 1.393-0.384 0-0.732-0.155-0.984-0.407l0 0-2.555-2.53v9.874h9.842l-2.526-2.462c-0.254-0.242-0.411-0.583-0.411-0.961 0-0.374 0.155-0.713 0.404-0.954l0-0c0.252-0.254 0.601-0.411 0.987-0.411 0.383 0 0.729 0.154 0.981 0.404l-0-0 4.919 4.891c0.253 0.251 0.409 0.599 0.409 0.984s-0.156 0.733-0.409 0.984l-0 0z"></path>
</svg>
