<!-- Generated by IcoMoon.io -->
<svg version="1.1" xmlns="http://www.w3.org/2000/svg" width="25" height="32" viewBox="0 0 25 32">
<title>play</title>
<path d="M24.424 14.265c-0.070-0.14-0.15-0.209-0.14-0.189-0.103-0.149-0.214-0.28-0.338-0.398l-0.001-0.001c-0.14-0.136-0.293-0.261-0.457-0.371l-0.012-0.008-18.422-12.72c-0.51-0.366-1.147-0.585-1.835-0.585-0.211 0-0.418 0.021-0.617 0.060l0.020-0.003c-0.86 0.156-1.584 0.644-2.047 1.325l-0.007 0.011c-0.162 0.235-0.3 0.506-0.401 0.793l-0.008 0.024c-0.097 0.233-0.156 0.503-0.16 0.786l-0 0.002v25.779c0.005 0.883 0.362 1.682 0.937 2.263l-0-0c0.559 0.613 1.361 0.996 2.253 0.997h0c0.025 0.001 0.055 0.001 0.085 0.001 0.349 0 0.683-0.066 0.99-0.187l-0.018 0.006c0.351-0.111 0.654-0.285 0.91-0.511l-0.003 0.002 18.452-12.79c0.623-0.485 1.065-1.178 1.223-1.973l0.003-0.021c0.038-0.186 0.060-0.399 0.060-0.618 0-0.619-0.174-1.198-0.476-1.689l0.008 0.014zM3.489 28.76c-0.074 0.027-0.137 0.068-0.189 0.12l0-0-0.11 0.030s-0.070 0-0.1-0.1v-25.64h0.12l0.1 0.070 18.283 12.631 0.060 0.080c0.002 0.015 0.002 0.032 0.002 0.050s-0.001 0.035-0.003 0.052l0-0.002v0.060z"></path>
</svg>
