<!-- Generated by IcoMoon.io -->
<svg version="1.1" xmlns="http://www.w3.org/2000/svg" width="31" height="32" viewBox="0 0 31 32">
<title>search-lg</title>
<path d="M18.714 21.596c-4.889 0-8.866-4.088-8.866-9.113 0-5.024 3.977-9.111 8.866-9.111s8.866 4.087 8.866 9.111c0 5.025-3.977 9.113-8.866 9.113zM6.782 12.483c0 2.83 0.947 5.435 2.531 7.509l-8.446 8.766c-0.67 0.686-0.663 1.791 0.016 2.466 0.309 0.311 0.738 0.504 1.211 0.504 0.482 0 0.917-0.2 1.227-0.52l8.466-8.789c1.912 1.422 4.319 2.277 6.925 2.278h0c6.579 0 11.931-5.479 11.931-12.213 0-6.733-5.352-12.21-11.931-12.21s-11.931 5.478-11.931 12.21z"></path>
</svg>
