<!-- Generated by IcoMoon.io -->
<svg version="1.1" xmlns="http://www.w3.org/2000/svg" width="32" height="32" viewBox="0 0 32 32">
<title>search</title>
<path d="M23.53 14.3c0.265 0.26 0.43 0.621 0.432 1.020v0c-0.001 0.401-0.166 0.763-0.432 1.024l-0 0c-0.27 0.265-0.64 0.428-1.048 0.428s-0.778-0.163-1.048-0.428l0 0c-0.266-0.261-0.431-0.623-0.432-1.024v-0c0.002-0.4 0.167-0.761 0.432-1.021l0-0c0.271-0.262 0.641-0.423 1.048-0.423s0.777 0.161 1.048 0.423l-0-0zM26.257 11.526c-0.094 0.626-0.628 1.101-1.273 1.101-0.065 0-0.128-0.005-0.19-0.014l0.007 0.001c-0.636-0.076-1.124-0.612-1.124-1.262 0-0.057 0.004-0.113 0.011-0.169l-0.001 0.006c0.259-1.894-1.901-2.88-1.994-2.925-0.448-0.199-0.755-0.64-0.755-1.153 0-0.188 0.041-0.366 0.115-0.526l-0.003 0.008c0.214-0.446 0.662-0.749 1.181-0.749 0.189 0 0.368 0.040 0.53 0.112l-0.008-0.003c0.16 0.070 4.019 1.789 3.504 5.568zM20.481 19.9c-0.005 0-0.010 0-0.016 0-4.705 0-8.522-3.803-8.544-8.504v-0.002c0.022-4.702 3.839-8.506 8.544-8.506 0.006 0 0.011 0 0.017 0h-0.001c0.005 0 0.010 0 0.016 0 4.703 0 8.518 3.8 8.544 8.497v0.002c-0.018 4.705-3.836 8.512-8.544 8.512-0.006 0-0.011 0-0.017-0h0.001zM20.481-0.004c-6.352 0-11.52 5.114-11.52 11.395 0 2.643 0.915 5.075 2.445 7.008l-10.925 10.826c-0.297 0.291-0.482 0.696-0.482 1.144 0 0.456 0.191 0.868 0.497 1.159l0.001 0.001c0.302 0.294 0.714 0.475 1.169 0.475 0.463 0 0.882-0.188 1.186-0.491v0l10.944-10.848c1.888 1.334 4.192 2.125 6.685 2.125 6.352 0 11.52-5.114 11.52-11.398 0-6.282-5.168-11.395-11.52-11.395z"></path>
</svg>
