<!-- Generated by IcoMoon.io -->
<svg version="1.1" xmlns="http://www.w3.org/2000/svg" width="32" height="32" viewBox="0 0 32 32">
<title>zoom-in</title>
<path d="M28.074 18.742h-9.873v9.332c-0.066 1.313-1.146 2.353-2.47 2.353s-2.404-1.040-2.47-2.347l-0-0.006v-9.332h-9.335c-1.313-0.066-2.353-1.146-2.353-2.47s1.040-2.404 2.347-2.47l0.006-0h9.332v-9.876c0.066-1.313 1.146-2.353 2.47-2.353s2.404 1.040 2.47 2.347l0 0.006v9.879h9.876c1.313 0.066 2.353 1.146 2.353 2.47s-1.040 2.404-2.347 2.47l-0.006 0z"></path>
</svg>
