<!-- Generated by IcoMoon.io -->
<svg version="1.1" xmlns="http://www.w3.org/2000/svg" width="188" height="32" viewBox="0 0 188 32">
<title>logotype</title>
<path fill="#898071" d="M18.895 28.889v2.667h-13.562v-2.667l4.444-0.952v-23.936h-5.778l-1.105 4.444h-2.895v-8h24.216v8h-2.883l-1.105-4.444h-5.778v23.936z"></path>
<path fill="#898071" d="M27.327 16.356c-0.001-0.081-0.002-0.176-0.002-0.271 0-2.316 0.368-4.546 1.048-6.636l-0.043 0.152c0.645-2.002 1.639-3.73 2.923-5.198l-0.015 0.017c1.236-1.397 2.758-2.512 4.477-3.257l0.082-0.032c1.676-0.716 3.626-1.132 5.672-1.132 0.077 0 0.154 0.001 0.231 0.002l-0.012-0c0.072-0.001 0.156-0.002 0.24-0.002 2.015 0 3.935 0.402 5.686 1.13l-0.098-0.036c1.733 0.732 3.197 1.796 4.37 3.124l0.011 0.013c1.187 1.382 2.113 3.026 2.678 4.829l0.026 0.098c0.597 1.861 0.941 4.002 0.941 6.223 0 0.093-0.001 0.187-0.002 0.28l0-0.014c0.001 0.067 0.001 0.146 0.001 0.225 0 2.284-0.391 4.477-1.11 6.515l0.042-0.137c-0.693 1.992-1.713 3.707-3.011 5.171l0.014-0.016c-1.274 1.414-2.821 2.554-4.561 3.343l-0.086 0.035c-1.74 0.802-3.776 1.27-5.921 1.27-0.025 0-0.051-0-0.076-0l0.004 0q-6.552-0.051-10.019-4.114t-3.492-11.581zM41.549 3.81q-9.105 0-9.105 12.229t8.673 12.229c0.125 0.007 0.271 0.011 0.418 0.011 2.611 0 4.939-1.212 6.452-3.105l0.013-0.017q2.438-3.111 2.438-9.333 0-12.013-8.889-12.013z"></path>
<path fill="#898071" d="M77.994 4h-9.549v9.968h10.222v3.556h-10.222v10.413l4.444 0.889v2.667h-12.889v-2.667l3.81-0.889v-23.936l-3.81-0.889v-2.451l8.444-0.216h13.549v7.34h-2.883z"></path>
<path fill="#898071" d="M93.549 4v23.936h9.105l0.889-5.079h3.124v8.673h-21.587v-2.667l3.81-0.889v-23.975l-3.81-0.889v-2.451l12.254-0.216v2.667z"></path>
<path fill="#898071" d="M121.105 28.889v2.667h-12.216v-2.667l3.81-0.889v-24l-3.81-0.889v-2.451l12.216-0.216v2.667l-3.81 0.889v23.936z"></path>
<path fill="#898071" d="M142.222 28.889v2.667h-13.562v-2.667l4.444-0.889v-24h-5.778l-1.105 4.444h-2.895v-8h24.229v8h-2.883l-1.181-4.444h-5.714v23.936z"></path>
<path fill="#b8ae9d" d="M166.552 28.317v3.238h-15.581v-3.238h5.867v-19.048l-6.476 4.19-1.6-2.743 8.889-5.829h3.2v23.429z"></path>
<path fill="#b8ae9d" d="M187.695 11.365c0.001 0.036 0.001 0.077 0.001 0.119 0 0.794-0.174 1.548-0.485 2.225l0.014-0.033c-0.314 0.675-0.714 1.254-1.196 1.754l0.002-0.002c-0.46 0.487-0.981 0.907-1.554 1.251l-0.033 0.018c-0.475 0.285-1.024 0.543-1.601 0.743l-0.063 0.019c1.518 0.593 2.813 1.455 3.885 2.539l0.001 0.001c0.879 0.983 1.415 2.287 1.415 3.717 0 0.091-0.002 0.181-0.006 0.271l0-0.013c0 0.027 0.001 0.058 0.001 0.090 0 1.137-0.253 2.215-0.706 3.181l0.019-0.046c-0.474 1.005-1.13 1.852-1.932 2.531l-0.011 0.009c-0.86 0.714-1.875 1.278-2.984 1.633l-0.064 0.018c-1.173 0.363-2.521 0.572-3.917 0.572s-2.745-0.209-4.014-0.598l0.097 0.026c-1.093-0.343-2.038-0.877-2.842-1.571l0.010 0.009c-0.741-0.649-1.331-1.45-1.723-2.357l-0.016-0.043c-0.37-0.88-0.585-1.903-0.585-2.976 0-0.047 0-0.095 0.001-0.142l-0 0.007c-0-0.025-0.001-0.055-0.001-0.085 0-0.916 0.211-1.782 0.587-2.553l-0.015 0.035c0.371-0.776 0.857-1.437 1.444-1.991l0.003-0.003c0.527-0.487 1.108-0.931 1.729-1.318l0.049-0.028c0.394-0.252 0.869-0.518 1.357-0.76l0.090-0.040c-1.305-0.604-2.411-1.425-3.319-2.429l-0.008-0.009c-0.731-0.907-1.174-2.073-1.174-3.342 0-0.084 0.002-0.167 0.006-0.25l-0 0.012c-0.005-0.092-0.008-0.2-0.008-0.308 0-1.998 0.959-3.772 2.443-4.887l0.016-0.011c1.691-1.132 3.77-1.806 6.008-1.806 0.205 0 0.409 0.006 0.611 0.017l-0.028-0.001c0.204-0.016 0.442-0.025 0.682-0.025 2.139 0 4.111 0.716 5.69 1.921l-0.023-0.017c1.32 1.154 2.149 2.841 2.149 4.721 0 0.072-0.001 0.144-0.004 0.216l0-0.010zM183.886 24.127c-0-0.983-0.382-1.877-1.005-2.542l0.002 0.002c-0.836-0.858-1.865-1.524-3.018-1.926l-0.055-0.017-1.829-0.724q-4.381 1.981-4.381 5.181c-0.005 0.073-0.007 0.159-0.007 0.246 0 1.228 0.525 2.333 1.363 3.104l0.003 0.003c1.063 0.746 2.384 1.193 3.81 1.193s2.746-0.446 3.831-1.207l-0.021 0.014c0.811-0.77 1.316-1.856 1.316-3.060 0-0.094-0.003-0.187-0.009-0.279l0.001 0.013zM179.619 16.317q4.076-1.676 4.076-4.762c0.001-0.034 0.002-0.075 0.002-0.116 0-1.073-0.493-2.032-1.266-2.66l-0.006-0.005c-0.997-0.645-2.216-1.028-3.524-1.028s-2.527 0.383-3.55 1.044l0.026-0.016c-0.779 0.634-1.272 1.592-1.272 2.665 0 0.041 0.001 0.081 0.002 0.122l-0-0.006c-0.001 0.022-0.001 0.047-0.001 0.073 0 0.581 0.156 1.125 0.428 1.593l-0.008-0.015c0.298 0.505 0.68 0.928 1.131 1.262l0.011 0.008c0.502 0.363 1.073 0.698 1.676 0.977l0.064 0.027c0.589 0.277 1.321 0.561 2.073 0.801l0.136 0.037z"></path>
</svg>
